<svg version="1.1" xmlns="http://www.w3.org/2000/svg" xmlns:xlink="http://www.w3.org/1999/xlink" width="1180" height="1105"><desc>title%20Get%20Address%0Aactor%20%22USER%22%20as%20user%20%23F2F2F2%0A%0Aparticipant%20%22API-Address%22%20as%20address%20%23F2F2F2%0Adatabase%20AddressDB%0Aparticipant%20%22API-Cep%20%5Cnexternal%20api%22%20as%20cepApi%20%23F2F2F2%0A%0Aparticipantspacing%202%0Alifelinestyle%20%23990000%3A1%3Adashed%0A%0A%0Auser%20-%3E%20address%3A%20**GET%3A%20%20%2Faddresses%2Ffind-by-zipcode%3FzipCode%3D88111555%0A%0Aaddress%20-%23808080%3E%3E%20AddressDB%3A%20findByZipCode%0Aactivate%20address%0Anote%20right%20of%20address%3AIf%20the%20address%20does%20not%20exist%20in%20the%20Address%20%5Cn%20api%20database%2C%20integrate%20with%20cepApi.%0Aaddress%20%3C%3C%23808080--%20AddressDB%3A%0Adeactivate%20address%0A%0Aaddress%20-%3E%20cepApi%3A%20**GET%3A%20%20%2Fhttps%3A%2F%2Fviacep.com.br%2Fws%2F88111333%2Fjson%0A%0Aactivate%20cepApi%0Anote%20left%20of%20cepApi%3A%20%7B%5Cn%22cep%22%3A%20%2288111555%22%2C%5Cn%22logradouro%22%3A%20%22437%20Lytton%20Ave%22%2C%20%5Cn%22complemento%22%3A%20%22%22%2C%20%5Cn%22bairro%22%3A%20%22Center%22%2C%20%5Cn%22localidade%22%3A%20%22Palo%20Alto%22%2C%20%5Cn%22uf%22%3A%20%22SC%22%2C%20%5Cn%22ibge%22%3A%20%22987456%22%2C%20%5Cn%22gia%22%3A%20%22%22%2C%20%5Cn%22ddd%22%3A%20%2248%22%2C%20%5Cn%22siafi%22%3A%20%223000%22%20%5Cn%7D%0Aaddress%20%3C--%20cepApi%3AResponse%3A%20%20%0Adeactivate%20cepApi%0A%0Arbox%20right%20of%20address%23E0FFFF%3A%20Insert%20the%20address%20into%20the%20database%20as%20defined%20%5Cnin%20the%20api%20contract.%0Aaddress%20-%23808080%3E%3E%20AddressDB%3A%20insertAddress%20%7C%20%5B%20Collection%3A%20Address%20%5D%0A%0Auser%20%3C--%20address%3A%20HttpStatus%20200%20%20%0Abox%20over%20user%2Caddress%3A%20%7B%5Cn%22id%22%3A%2265ff184ef05f4914c16f2139%22%2C%20%5Cn%22street%22%3A%22437%20Lytton%20Ave%22%2C%20%5Cn%22neighborhood%22%3A%22Center%22%2C%20%5Cn%22number%22%3A%22%22%2C%20%5Cn%22city%22%3A%22Palo%20Alto%22%2C%20%5Cn%22state%22%3A%22AM%22%2C%20%5Cn%22zip%22%3A%2288111555%22%20%5Cn%7D%0A</desc><defs/><g><g/><g/><g/><g/><g/><g/><g/><g/><g/><g/><g/><g/><g/><g/><g/><g/><g/><g/><g/><g/><g/><g/><g/><g/><g/><g/><g/><g/><g/><g/><g/><g/><g/><g/><g/><g/><g/><g/><g/><g/><g/><g/><g/><g/><g/><g/><g/><g/><g/><g/><g/><g/><g/><g/><g/><g/><g/><g/><g/><g/><g/><g/><g/><g/><g/><g/><g/><g/><g/><g/><g/><g/><g/><g/><g/><g/><g/><g/><g/><g/><g/><g/><g/><g/><g/><g/><g/><g/><g/><g/><g/><g/><g/><g/><g/><g/><g/><g/><g/><g/><g/><g/><g/><g/><g/><g/><g/><g/><g/><g/><g/><g/><g/><g/><g/><g/><g/><g/><g/><g/><g/><g/><g/><g/><g/><g/><g/><g/><g/><g/><g/><g/><g/><g/><g/><g/><g/><g/><g/><g/><g/><g/><g/><g/><g/><g/><g/><g/><g/><g/><g/><g/><g/><g/><g/><g/><g/><g/><g/><g/><g/><g/><g/><g/><g/><g/><g/><g/><g/><g/><g/><g/><g/><g/><g/><g/><g/><g/><g/><g/><g/><g/><g/><g/><g/><g/><g/><g/><g/><g/><g/><g/><g/><g/><g/><g/><g/><g/><g/><g/><g/><g/><g/><g/><g/><g/><g/><g/><g/><g/><g/><g/><g/><g/><g/><g/><g/><g/><g/><g/><g/><g/><g/><g/><g/><g/><g/><g/><g/><g/><g/><g/><g><rect fill="white" stroke="none" x="0" y="0" width="1180" height="1105"/></g><g/><g><path fill="none" stroke="#990000" paint-order="fill stroke markers" d=" M 28.532668178320314 128.73625218881818 L 28.532668178320314 1105.5814095288179" stroke-miterlimit="10" stroke-width="1.3612669416666667" stroke-dasharray="12.565541,5.445067766666667"/><path fill="none" stroke="#990000" paint-order="fill stroke markers" d=" M 448.92231098509114 128.73625218881818 L 448.92231098509114 1105.5814095288179" stroke-miterlimit="10" stroke-width="1.3612669416666667" stroke-dasharray="12.565541,5.445067766666667"/><path fill="none" stroke="#990000" paint-order="fill stroke markers" d=" M 828.8629191838802 128.73625218881818 L 828.8629191838802 1105.5814095288179" stroke-miterlimit="10" stroke-width="1.3612669416666667" stroke-dasharray="12.565541,5.445067766666667"/><path fill="none" stroke="#990000" paint-order="fill stroke markers" d=" M 1116.7279353416536 128.73625218881818 L 1116.7279353416536 1105.5814095288179" stroke-miterlimit="10" stroke-width="1.3612669416666667" stroke-dasharray="12.565541,5.445067766666667"/></g><g><g><path fill="#F2F2F2" stroke="black" paint-order="fill stroke markers" d=" M 37.84373405932031 59.63834222981819 A 9.311065881 9.311065881 0 1 1 37.84372940378776 59.62903116548903 M 28.532668178320314 68.9494081108182 L 28.532668178320314 88.8783561368182 M 16.771321802320315 76.13689756281819 L 40.29401455432031 76.13689756281819 M 28.532668178320314 88.8783561368182 L 16.771321802320315 107.50048789881819 M 28.532668178320314 88.8783561368182 L 40.29401455432031 107.50048789881819" stroke-miterlimit="10" stroke-width="2.7769845610000004" stroke-dasharray=""/></g><g><text fill="black" stroke="none" font-family="sans-serif" font-size="11pt" font-style="normal" font-weight="normal" text-decoration="normal" x="8.167601650000002" y="123.8356911988182" text-anchor="start" dominant-baseline="alphabetic" xml:space="preserve">USER</text></g><path fill="none" stroke="none"/><g><path fill="#F2F2F2" stroke="black" paint-order="fill stroke markers" d=" M 390.05332884453253 84.7945553118182 L 507.79129312564976 84.7945553118182 L 507.79129312564976 128.73625218881818 L 390.05332884453253 128.73625218881818 L 390.05332884453253 84.7945553118182 Z" stroke-miterlimit="10" stroke-width="2.613632528" stroke-dasharray=""/></g><g><text fill="black" stroke="none" font-family="sans-serif" font-size="11pt" font-style="normal" font-weight="normal" text-decoration="normal" x="407.77702442503255" y="112.40104888881818" text-anchor="start" dominant-baseline="alphabetic" xml:space="preserve">API-Address</text></g><g><path fill="white" stroke="black" paint-order="fill stroke markers" d=" M 805.0135223658802 96.71925372081819 L 805.0135223658802 62.41532679081819 L 852.7123160018801 62.41532679081819 L 852.7123160018801 96.71925372081819" stroke-miterlimit="10" stroke-width="2.7769845610000004" stroke-dasharray=""/><path fill="white" stroke="black" paint-order="fill stroke markers" d=" M 852.7123160018801 61.22285694991819 L 852.7111235419765 61.33066749483481 L 852.7075462815104 61.43846725878678 L 852.7015845782051 61.546245461887544 L 852.6932390282258 61.65399132640659 L 852.6825104661206 61.761694077847274 L 852.6693999647367 61.86934294602419 L 852.6539088351135 61.976927166140236 L 852.6360386263509 62.084435979863045 L 852.6157911254548 62.19185863640084 L 852.5931683571587 62.299184393577484 L 852.5681725837203 62.4064025189067 L 852.5408063046963 62.51350229066531 L 852.5110722566917 62.62047299896537 L 852.4789734130866 62.7273039468252 L 852.4445129837385 62.83398445123905 L 852.4076944146617 62.94050384424536 L 852.3685213876823 63.04685147399361 L 852.3269978200706 63.15301670580944 L 852.2831278641486 63.25898892325815 L 852.2369159068752 63.364757529206294 L 852.1883665694079 63.47031194688142 L 852.1374847066398 63.575641620929716 L 852.0842754067149 63.68073601847156 L 852.0287439905187 63.78558463015478 L 851.9708960111467 63.89017697120557 L 851.9107372533485 63.994502582477 L 851.8482737329499 64.09855103149486 L 851.7835116962507 64.20231191350096 L 851.7164576194007 64.3057748524936 L 851.6471182077518 64.40892950226505 L 851.5755003951871 64.51176554743633 L 851.5016113434284 64.61427270448858 L 851.4254584413194 64.71644072279157 L 851.3470493040866 64.81825938562858 L 851.2663917725785 64.91971851121816 L 851.183493912481 65.02080795373233 L 851.0983640135112 65.12151760431107 L 851.0110105885877 65.22183739207324 L 850.9214423729806 65.32175728512367 L 850.8296683234365 65.42126729155632 L 850.7356976172841 65.52035746045347 L 850.6395396515155 65.6190178828808 L 850.5412040418474 65.71723869287828 L 850.4407006217587 65.81501006844678 L 850.3380394415075 65.91232223253022 L 850.2332307671264 66.00916545399325 L 850.1262850793955 66.10553004859446 L 850.0172130727946 66.20140637995469 L 849.9060256544333 66.29678486052069 L 849.7927339429607 66.39165595252388 L 849.6773492674538 66.48601016893414 L 849.5598831662837 66.57983807440844 L 849.4403473859628 66.67313028623443 L 849.3187538799696 66.76587747526865 L 849.1951148075532 66.85807036686953 L 849.0694425325178 66.94969974182469 L 848.9417496219863 67.04075643727302 L 848.8120488451433 67.13123134762085 L 848.6803531719584 67.22111542545254 L 848.5466757718891 67.3103996824352 L 848.4110300125642 67.39907519021754 L 848.2734294584463 67.4871330813227 L 848.1338878694764 67.57456455003492 L 847.9924191996971 67.6613608532802 L 847.8490375958573 67.74751331150055 L 847.7037573959982 67.83301330952195 L 847.5565931280183 67.91785229741582 L 847.4075595082222 68.00202179135408 L 847.2566714398473 68.08551337445749 L 847.103944011575 68.1683186976373 L 846.9493924960207 68.25042948043021 L 846.7930323482072 68.33183751182635 L 846.634879204019 68.41253465109044 L 846.4749488786387 68.4925128285758 L 846.3132573649655 68.5717640465313 L 846.1498208320162 68.65028037990122 L 845.9846556233076 68.72805397711764 L 845.8177782552233 68.80507706088565 L 845.6492054153608 68.88134192896105 L 845.4789539608637 68.95684095492061 L 845.3070409167356 69.03156658892462 L 845.1334834741375 69.10551135847197 L 844.9582989886692 69.17866786914732 L 844.7815049786332 69.25102880536058 L 844.6031191232831 69.3225869310784 L 844.4231592610558 69.39333509054786 L 844.2416433877878 69.46326620901198 L 844.0585896549148 69.53237329341717 L 843.8740163676579 69.60064943311258 L 843.6879419831916 69.66808780054113 L 843.5003851087997 69.7346816519223 L 843.311364500013 69.80042432792644 L 843.1208990587352 69.86530925434072 L 842.9290078313513 69.92932994272657 L 842.7357100068245 69.9924799910685 L 842.541024914776 70.05475308441433 L 842.3449720235528 70.1161429955066 L 842.1475709382806 70.17664358540536 L 841.9488413989036 70.23624880410202 L 841.7488032782098 70.29495269112441 L 841.5474765798449 70.35274937613272 L 841.3448814363109 70.40963307950663 L 841.141038106953 70.46559811292322 L 840.9359669759348 70.52063887992576 L 840.729688550198 70.57474987648341 L 840.5222234574137 70.62792569154163 L 840.313592443918 70.68016100756323 L 840.1038163726386 70.73145060106012 L 839.8929162210076 70.78178934311569 L 839.6809130788645 70.8311721998977 L 839.4678281463468 70.8795942331616 L 839.2536827317705 70.92705060074444 L 839.0384982494982 70.973536557049 L 838.8222962177989 71.01904745351838 L 838.6050982566958 71.06357873910088 L 838.3869260858038 71.10712596070502 L 838.1678015221582 71.14968476364494 L 837.9477464780329 71.19125089207583 L 837.7267829587488 71.23182018941947 L 837.5049330604738 71.27138859877994 L 837.2822189680128 71.30995216334925 L 837.0586629525893 71.34750702680313 L 836.8342873696189 71.38404943368649 L 836.6091146564726 71.4195757297891 L 836.3831673302342 71.45408236251096 L 836.156467985448 71.48756588121756 L 835.9290392918596 71.52002293758491 L 835.7009039921487 71.55145028593446 L 835.4720848996554 71.58184478355753 L 835.2426048960981 71.61120339102969 L 835.0124869292861 71.63952317251467 L 834.781754010824 71.66680129605793 L 834.5504292138116 71.69303503386982 L 834.3185356705358 71.71822176259843 L 834.0860965701577 71.7423589635919 L 833.8531351563936 71.7654442231502 L 833.6196747251906 71.78747523276665 L 833.3857386223976 71.80844978935863 L 833.1513502414297 71.82836579548797 L 832.9165330209297 71.84722125957065 L 832.6813104424241 71.86501429607597 L 832.4457060279744 71.8817431257151 L 832.2097433378261 71.89740607561903 L 831.9734459680515 71.91200157950583 L 831.7368375481905 71.92552817783725 L 831.4999417388879 71.93798451796474 L 831.2627822295274 71.94936935426468 L 831.0253827358622 71.95968154826289 L 830.7877669976438 71.96892006874862 L 830.5499587762481 71.97708399187748 L 830.311981852299 71.98417250126396 L 830.0738600232906 71.99018488806304 L 829.8356171012075 71.99512055104105 L 829.5972769101431 71.99897899663581 L 829.3588632839181 72.00175983900598 L 829.1204000636964 72.00346280006961 L 828.8819110956013 72.00408770953204 L 828.6434202283307 72.00363450490285 L 828.4049513107728 72.0021032315021 L 828.1665281896206 71.99949404245586 L 827.9281747069876 71.9958071986809 L 827.6899146980232 71.99104306885846 L 827.45177198853 71.98520212939759 L 827.2137703925804 71.97828496438737 L 826.9759337101356 71.97029226553852 L 826.7382857246656 71.96122483211428 L 826.5008502007711 71.95108357085043 L 826.2636508818064 71.93986949586466 L 826.026711487506 71.92758372855508 L 825.7900557116117 71.91422749748824 L 825.5537072195038 71.89980213827607 L 825.3176896458348 71.8843090934425 L 825.0820265921652 71.86774991227908 L 824.8467416246041 71.85012625069015 L 824.6118582714521 71.83143987102717 L 824.3774000208488 71.81169264191253 L 824.1433903184239 71.79088653805269 L 823.9098525649525 71.7690236400407 L 823.6768101140157 71.74610613414815 L 823.444286269664 71.72213631210651 L 823.2123042840881 71.69711657087802 L 822.9808873552935 71.67104941241597 L 822.75005862478 71.64393744341446 L 822.5198411752284 71.6157833750478 L 822.2902580281918 71.58659002269937 L 822.0613321417935 71.55636030568009 L 821.8330864084315 71.52509724693644 L 821.6055436524889 71.49280397274828 L 821.3787266280516 71.45948371241609 L 821.1526580166332 71.42513979793813 L 820.9273604249062 71.38977566367726 L 820.7028563824421 71.35339484601741 L 820.4791683394582 71.31600098301004 L 820.2563186645723 71.27759781401028 L 820.0343296425661 71.23818917930303 L 819.8132234721571 71.19777901971894 L 819.5930222637777 71.15637137624027 L 819.3737480373655 71.11397038959687 L 819.1554227201603 71.07058029985207 L 818.9380681445119 71.02620544597868 L 818.7217060456969 70.98085026542512 L 818.5063580597446 70.93451929367163 L 818.2920457212743 70.8872171637768 L 818.0787904613412 70.8389486059142 L 817.8666136052938 70.78971844689937 L 817.6555363706404 70.7395316097072 L 817.4455798649291 70.6883931129796 L 817.2367650836352 70.6363080705236 L 817.0291129080629 70.58328169080006 L 816.8226441032567 70.52931927640276 L 816.6173793159251 70.47442622352818 L 816.4133390723756 70.41860802143584 L 816.2105437764626 70.36187025189946 L 816.0090137075468 70.3042185886487 L 815.8087690184672 70.24565879680183 L 815.6098297335255 70.18619673228926 L 815.4122157464848 70.12583834126788 L 815.2159468185789 70.06458965952649 L 815.0210425765371 70.00245681188221 L 814.8275225106212 69.93944601156807 L 814.6354059726764 69.87556355961155 L 814.4447121741966 69.81081584420461 L 814.2554601844026 69.74520934006487 L 814.0676689283357 69.67875060778805 L 813.881357184965 69.61144629319199 L 813.6965435853097 69.54330312665208 L 813.5132466105756 69.47432792242817 L 813.3314845903074 69.40452757798322 L 813.1512757005559 69.3339090732935 L 812.9726379620596 69.26247947015062 L 812.7955892384437 69.19024591145539 L 812.6201472344328 69.11721562050347 L 812.4463294940814 69.0433959002631 L 812.2741533990185 68.96879413264479 L 812.1036361667101 68.89341777776313 L 811.9347948487375 68.81727437319081 L 811.7676463290916 68.74037153320482 L 811.6022073224852 68.66271694802508 L 811.438494372681 68.58431838304537 L 811.2765238508377 68.5051836780569 L 811.1163119538725 68.4253207464642 L 810.9578747028413 68.34473757449386 L 810.8012279413375 68.26344222039596 L 810.6463873339067 68.18144281363814 L 810.4933683644804 68.09874755409275 L 810.342186334828 68.01536471121685 L 810.1928563630267 67.9313026232252 L 810.0453933819492 67.84656969625658 L 809.8998121377707 67.76117440353308 L 809.7561271884942 67.67512528451279 L 809.614352902495 67.5884309440359 L 809.4745034570836 67.50110005146425 L 809.3365928370879 67.41314133981427 L 809.2006348334548 67.32456360488388 L 809.0666430418718 67.23537570437271 L 808.934630861406 67.14558655699653 L 808.8046114931657 67.05520514159522 L 808.6765979389792 66.96424049623502 L 808.5506030000953 66.87270171730466 L 808.426639275903 66.78059795860575 L 808.3047191626713 66.68793843043741 L 808.1848548523099 66.59473239867523 L 808.06705833115 66.50098918384472 L 807.9513413787455 66.40671816018926 L 807.8377155666952 66.31192875473263 L 807.7261922574859 66.2166304463364 L 807.6167826033552 66.120832764752 L 807.5094975451775 66.02454528966774 L 807.4043478113692 65.92777764975091 L 807.3013439168162 65.83053952168484 L 807.2004961618219 65.73284062920132 L 807.1018146310778 65.63469074210818 L 807.0053091926549 65.53609967531233 L 806.9109894970164 65.4370772878383 L 806.8188649760534 65.33763348184232 L 806.7289448421412 65.23777820162212 L 806.6412380872183 65.13752143262249 L 806.555753481887 65.03687320043682 L 806.4724995745368 64.93584356980442 L 806.3914846904887 64.83444264360419 L 806.3127169311639 64.73268056184422 L 806.2362041732727 64.63056750064791 L 806.1619540680268 64.52811367123628 L 806.0899740403753 64.42532931890689 L 806.0202712882606 64.32222472200931 L 805.9528527819001 64.21881019091732 L 805.8877252630881 64.11509606699785 L 805.8248952445222 64.01109272157687 L 805.764369009152 63.90681055490224 L 805.7061526095505 63.80225999510374 L 805.6502518673093 63.697451497150205 L 805.5966723724558 63.59239554180411 L 805.545419482895 63.48710263457343 L 805.4964983238732 63.381583304661156 L 805.4499137874653 63.27584810391234 L 805.4056705320864 63.16990760575894 L 805.363772982025 63.06377240416249 L 805.3242253270013 62.95745311255472 L 805.2870315217476 62.85096036277616 L 805.2521952856138 62.744304804013076 L 805.2197201021941 62.63749710173245 L 805.1896092189801 62.530547936615505 L 805.1618656470348 62.423468003489624 L 805.1364921606925 62.316268010258895 L 805.1134912972805 62.208958676833305 L 805.092865356866 62.10155073405677 L 805.0746164020259 61.99405492263407 L 805.0587462576405 61.88648199205676 L 805.0452565107109 61.77884269952825 L 805.0341485102007 61.6711478088881 L 805.0254233669007 61.56340808953563 L 805.0190819533177 61.45563431535299 L 805.0151249035881 61.34783726362778 L 805.0135526134134 61.24002771397536 L 805.0143652400213 61.13221644726084 L 805.0175627021499 61.02441424452105 L 805.0231446800556 60.916631885886424 L 805.0311106155452 60.808880149503025 L 805.041459712032 60.70116981045468 L 805.0541909346148 60.59351163968555 L 805.0693030101819 60.48591640292299 L 805.0867944275385 60.378394859601016 L 805.1066634375572 60.27095776178435 L 805.1289080533539 60.163615853093255 L 805.1535260504854 60.05637986762915 L 805.1805149671724 59.949260528901206 L 805.2098721045458 59.84226854875404 L 805.2415945269163 59.7354146262965 L 805.2756790620682 59.62870944683179 L 805.3121223015762 59.52216368078894 L 805.350920601147 59.41578798265577 L 805.3920700809826 59.30959298991343 L 805.4355666261697 59.203589321972714 L 805.4814058870897 59.09778757911208 L 805.5295832798549 58.992198341417634 L 805.5800939867662 58.88683216772516 L 805.6329329567948 58.78169959456423 L 805.6880949060879 58.67681113510454 L 805.7455743184966 58.57217727810464 L 805.8053654461273 58.46780848686303 L 805.8674623099172 58.36371519817185 L 805.9318587002317 58.25990782127324 L 805.9985481774855 58.15639673681838 L 806.0675240727863 58.053192295829454 L 806.1387794886022 57.950304818664556 L 806.2123072994508 57.84774459398567 L 806.2881001526124 57.745521877729786 L 806.3661504688648 57.64364689208335 L 806.4464504432416 57.54212982446004 L 806.528992045812 57.44098082648201 L 806.6137670224847 57.340210012964775 L 806.7007668958327 57.2398274609057 L 806.789982965941 57.13984320847635 L 806.8814063112771 57.040267254018644 L 806.9750277895827 56.94110955504505 L 807.0708380387877 56.84238002724283 L 807.1688274779473 56.74408854348249 L 807.2689863081991 56.646244932830506 L 807.3713045137437 56.54885897956639 L 807.4757718628455 56.45194042220433 L 807.582377908857 56.35549895251929 L 807.6911119912622 56.25954421457787 L 807.8019632367435 56.16408580377391 L 807.9149205602689 56.06913326586893 L 808.0299726662 55.974696096037604 L 808.1471080494222 55.88078373791821 L 808.2663149964945 55.7874055826683 L 808.387581586822 55.694570968025594 L 808.5108956938464 55.60228917737418 L 808.6362449862598 55.51056943881623 L 808.7636169292375 55.41942092424918 L 808.8929987856914 55.328852748448504 L 809.0243776175435 55.23887396815633 L 809.15774028702 55.14949358117568 L 809.2930734579654 55.0607205254708 L 809.4303635971753 54.97256367827326 L 809.5695969757501 54.88503185519433 L 809.710759670468 54.79813380934336 L 809.8538375651771 54.71187823045254 L 809.9988163522072 54.62627374400786 L 810.1456815338005 54.541328910386646 L 810.2944184235612 54.45705222400146 L 810.4450121479241 54.373452112450714 L 810.5974476476425 54.290536935675895 L 810.7517096792933 54.20831498512558 L 810.907782816802 54.12679448292632 L 811.0656514529848 54.0459835810604 L 811.2252998011097 53.965890360550645 L 811.3867118964748 53.88652283065238 L 811.5498715980053 53.80788892805245 L 811.7147625898668 53.72999651607559 L 811.8813683830978 53.652853383898076 L 812.0496723172575 53.57646724576885 L 812.2196575620928 53.50084574023808 L 812.3913071192211 53.42599642939328 L 812.5646038238295 53.35192679810317 L 812.739530346392 53.278644253269164 L 812.9160691944022 53.20615612308466 L 813.0942027141223 53.13446965630228 L 813.2739130923488 53.06359202150896 L 813.4551823581937 52.99353030640911 L 813.6379923848814 52.924291517115876 L 813.8223248915616 52.85588257745046 L 814.0081614451374 52.78831032824984 L 814.195483462108 52.72158152668263 L 814.3842722104279 52.65570284557336 L 814.5745088113797 52.590680872735255 L 814.7661742414618 52.52652211031142 L 814.9592493342909 52.463232974124615 L 815.1537147825186 52.40081979303573 L 815.3495511397622 52.33928880831086 L 815.546738822549 52.278646172997206 L 815.7452581122752 52.21889795130775 L 815.9450891571772 52.160050118014894 L 816.146211974317 52.1021085578529 L 816.3486064515806 52.045079064929524 L 816.552252349689 51.98896734214652 L 816.7571293042217 51.933779000629414 L 816.9632168276544 51.87951955916637 L 817.1704943114063 51.826194443656306 L 817.3789410279018 51.77380898656634 L 817.588536132643 51.72236842639853 L 817.7992586662939 51.67187790716602 L 818.0110875567769 51.622342477878675 L 818.2240016213796 51.57376709203812 L 818.4379795688727 51.526156607142475 L 818.65300000164 51.47951578420055 L 818.8690414178171 51.43384928725578 L 819.0860822134426 51.38916168291979 L 819.304100684618 51.34545743991578 L 819.5230750296776 51.302740928631636 L 819.7429833513693 51.261016420682886 L 819.9638036590445 51.220288088485546 L 820.1855138708562 51.18056000483891 L 820.4080918159681 51.14183614251822 L 820.6315152367711 51.10412037387746 L 820.8557617911092 51.06741647046204 L 821.0808090545141 51.03172810263173 L 821.3066345224469 50.99705883919358 L 821.5332156125489 50.96341214704502 L 821.7605296669001 50.930791390827245 L 821.9885539542842 50.899199832588685 L 822.2172656724626 50.86864063145883 L 822.4466419504543 50.83911684333235 L 822.6766598508224 50.81063142056343 L 822.9072963719685 50.78318721167063 L 823.1385284504329 50.75678696105195 L 823.3703329632002 50.731433308710464 L 823.6026867300126 50.70712878999027 L 823.8355665156868 50.683875835323 L 824.0689490324384 50.66167676998473 L 824.3028109422102 50.6405338138635 L 824.537128859006 50.6204490812373 L 824.7718793512295 50.60142458056266 L 825.007038944027 50.583462214273794 L 825.2425841216354 50.566563778592354 L 825.4784913297331 50.55073096334783 L 825.7147369777958 50.53596535180856 L 825.9512974414556 50.52226842052339 L 826.1881490648634 50.50964153917403 L 826.425268163054 50.49808597043808 L 826.6626310243155 50.48760286986282 L 826.9002139125593 50.47819328574954 L 827.1379930696945 50.46985815904882 L 827.3759447180039 50.462598323266384 L 827.6140450625206 50.456414504379765 L 827.8522702934088 50.45130732076569 L 828.0905965883438 50.44727728313828 L 828.3290001148948 50.444324794497916 L 828.5674570329077 50.44245015009101 L 828.8059434968895 50.44165353738045 L 829.0444356583926 50.44193503602685 L 829.2829096683994 50.443294617880554 L 829.5213416797078 50.445732146984525 L 829.7597078493153 50.44924737958788 L 829.9979843408036 50.45383996417029 L 830.2361473267221 50.459509441477124 L 830.4741729909706 50.46625524456538 L 830.7120375311811 50.474076698860365 L 830.9497171610977 50.48297302222316 L 831.1871881129558 50.49294332502887 L 831.4244266398578 50.50398661025549 L 831.6614090181487 50.51610177358371 L 831.8981115497883 50.52928760350731 L 832.1345105647206 50.54354278145426 L 832.3705824232412 50.55886588191867 L 832.6063035183608 50.575255372603245 L 832.8416502781665 50.592709614572584 L 833.0765991681784 50.61122686241703 L 833.3111266937032 50.630805264427224 L 833.5452094021839 50.651442862779284 L 833.7788238855446 50.67313759373059 L 834.0119467825317 50.695887287826096 L 834.2445547810498 50.71968967011537 L 834.4766246204929 50.74454236038002 L 834.7081330940704 50.77044287337172 L 834.9390570511279 50.797388619060754 L 835.1693733994621 50.825376902895016 L 835.39905910763 50.85440492606945 L 835.6280912072524 50.88446978580591 L 835.85644679531 50.9155684756435 L 836.0841030364345 50.947697885739125 L 836.3110371651912 50.980854803178566 L 836.5372264883566 51.01503591229771 L 836.7626483871869 51.05023779501413 L 836.9872803196798 51.08645693116888 L 837.2110998228295 51.12368969887854 L 837.4340845148721 51.16193237489736 L 837.6562120975241 51.201181134989596 L 837.8774603582126 51.241432054311964 L 838.0978071722957 51.28268110780607 L 838.3172305052756 51.32492417060092 L 838.535708415002 51.368157018425464 L 838.7532190538659 51.41237532803093 L 838.9697406709847 51.45757467762322 L 839.1852516143771 51.503750547305025 L 839.3997303331283 51.55089831952786 L 839.6131553795453 51.5990132795538 L 839.8255054113013 51.64809061592693 L 840.03675919357 51.69812542095451 L 840.2468956011492 51.749112691197745 L 840.4558936205732 51.801047327972086 L 840.6637323522144 51.85392413785714 L 840.8703910123727 51.90773783321599 L 841.0758489353544 51.962483032723924 L 841.2800855755384 52.01815426190663 L 841.4830805094307 52.07474595368758 L 841.6848134377072 52.132252448944755 L 841.8852641872434 52.190667997076545 L 842.084412713131 52.24998675657682 L 842.2822391006836 52.310202795619055 L 842.4787235674272 52.371310092649544 L 842.673846465079 52.43330253698949 L 842.8675882815118 52.49617392944612 L 843.0599296427051 52.559917982932596 L 843.2508513146836 52.62452832309667 L 843.4403342054387 52.68999848895818 L 843.6283593668396 52.7563219335551 L 843.8149079965267 52.823492024598224 L 843.9999614397924 52.89150204513444 L 844.1835011914467 52.960345194218355 L 844.3655088976674 53.03001458759244 L 844.5459663578355 53.10050325837541 L 844.7248555263553 53.171804157758935 L 844.9021585144591 53.243910155712484 L 845.0778575919959 53.31681404169635 L 845.2519351892042 53.39050852538269 L 845.4243738984695 53.46498623738456 L 845.5951564760645 53.5402397299928 L 845.7642658438738 53.61626147792087 L 845.9316850911014 53.69304387905734 L 846.0973974759622 53.770579255226075 L 846.2613864273559 53.848859852954064 L 846.4236355465239 53.92787784424677 L 846.5841286086895 54.00762532737092 L 846.7428495646803 54.08809432764465 L 846.8997825425329 54.16927679823499 L 847.0549118490802 54.251164620962534 L 847.2082219715211 54.33374960711325 L 847.3596975789708 54.41702349825734 L 847.5093235239949 54.500977967075094 L 847.6570848441237 54.58560461818958 L 847.8029667633482 54.670894989006214 L 847.9469546935981 54.75684055055899 L 848.0890342362003 54.84343270836337 L 848.229191183319 54.93066280327574 L 848.3674115193762 55.0185221123593 L 848.5036814224536 55.107001849756344 L 848.6379872656744 55.196093167566886 L 848.7703156185662 55.28578715673337 L 848.9006532484038 55.37607484793163 L 849.0289871215332 55.46694721246779 L 849.1553044046739 55.55839516318112 L 849.2795924662025 55.65040955535275 L 849.4018388774169 55.742981187620146 L 849.5220314137777 55.83610080289723 L 849.6401580561313 55.92975908930006 L 849.756206991912 56.02394668107806 L 849.8701666163229 56.11865415955053 L 849.9820255334965 56.213872054048544 L 850.0917725576344 56.30959084286201 L 850.1993967141256 56.405800954191804 L 850.304887240644 56.50249276710697 L 850.408233588225 56.5996566125068 L 850.50942542232 56.69728277408771 L 850.6084526238299 56.79536148931491 L 850.7053052901168 56.89388295039859 L 850.7999737359952 56.99283730527477 L 850.8924484946991 57.09221465859041 L 850.9827203188299 57.19200507269298 L 851.0707801812803 57.29219856862425 L 851.1566192761373 57.39278512711811 L 851.2402290195633 57.49375468960253 L 851.3216010506533 57.59509715920541 L 851.4007272322722 57.69680240176424 L 851.4775996518676 57.79886024683951 L 851.5522106222618 57.90126048873177 L 851.6245526824198 58.003992887502164 L 851.694618598196 58.10704716999642 L 851.762401363057 58.21041303087217 L 851.827894198783 58.31408013362946 L 851.891090556145 58.41803811164441 L 851.9519841155596 58.52227656920584 L 852.010568787722 58.62678508255487 L 852.0668387142136 58.731553200927245 L 852.1207882680889 58.83657044759845 L 852.1724120544371 58.94182632093131 L 852.2217049109228 59.04731029542622 L 852.2686619083014 59.153011822773635 L 852.3132783509122 59.25892033290889 L 852.3555497771483 59.36502523506925 L 852.3954719599021 59.471315918852895 L 852.4330409069888 59.57778175528004 L 852.4682528615448 59.684412097855756 L 852.5011043024042 59.79119628363465 L 852.53159194445 59.89812363428712 L 852.5597127389437 60.005183457167206 L 852.5854638738291 60.11236504638185 L 852.6088427740143 60.21965768386144 L 852.6298471016286 60.327050640431644 L 852.6484747562569 60.43453317688629 L 852.6647238751491 60.5420945450613 L 852.678592833407 60.6497239889095 L 852.6900802441463 60.757410745576195 L 852.6991849586354 60.86514404647545 L 852.7059060664106 60.972913118366954 L 852.7102428953666 61.08070718443333 L 852.7121950118242 61.188515465357796 M 852.7123160018801 95.52678387991818 L 852.7111235419765 95.6345944248348 L 852.7075462815104 95.74239418878678 L 852.7015845782051 95.85017239188754 L 852.6932390282258 95.95791825640659 L 852.6825104661206 96.06562100784727 L 852.6693999647367 96.1732698760242 L 852.6539088351135 96.28085409614023 L 852.6360386263509 96.38836290986303 L 852.6157911254548 96.49578556640084 L 852.5931683571587 96.60311132357748 L 852.5681725837203 96.7103294489067 L 852.5408063046963 96.8174292206653 L 852.5110722566917 96.92439992896537 L 852.4789734130866 97.0312308768252 L 852.4445129837385 97.13791138123905 L 852.4076944146617 97.24443077424536 L 852.3685213876823 97.35077840399362 L 852.3269978200706 97.45694363580944 L 852.2831278641486 97.56291585325815 L 852.2369159068752 97.66868445920629 L 852.1883665694079 97.77423887688141 L 852.1374847066398 97.8795685509297 L 852.0842754067149 97.98466294847155 L 852.0287439905187 98.08951156015478 L 851.9708960111467 98.19410390120557 L 851.9107372533485 98.29842951247699 L 851.8482737329499 98.40247796149485 L 851.7835116962507 98.50623884350097 L 851.7164576194007 98.60970178249359 L 851.6471182077518 98.71285643226504 L 851.5755003951871 98.81569247743631 L 851.5016113434284 98.91819963448859 L 851.4254584413194 99.02036765279156 L 851.3470493040866 99.12218631562857 L 851.2663917725785 99.22364544121817 L 851.183493912481 99.32473488373233 L 851.0983640135112 99.42544453431107 L 851.0110105885877 99.52576432207324 L 850.9214423729806 99.62568421512367 L 850.8296683234365 99.72519422155631 L 850.7356976172841 99.82428439045346 L 850.6395396515155 99.92294481288079 L 850.5412040418474 100.02116562287829 L 850.4407006217587 100.11893699844678 L 850.3380394415075 100.2162491625302 L 850.2332307671264 100.31309238399325 L 850.1262850793955 100.40945697859446 L 850.0172130727946 100.50533330995468 L 849.9060256544333 100.60071179052068 L 849.7927339429607 100.69558288252388 L 849.6773492674538 100.78993709893413 L 849.5598831662837 100.88376500440843 L 849.4403473859628 100.97705721623441 L 849.3187538799696 101.06980440526866 L 849.1951148075532 101.16199729686952 L 849.0694425325178 101.25362667182469 L 848.9417496219863 101.34468336727302 L 848.8120488451433 101.43515827762084 L 848.6803531719584 101.52504235545253 L 848.5466757718891 101.61432661243519 L 848.4110300125642 101.70300212021755 L 848.2734294584463 101.7910600113227 L 848.1338878694764 101.87849148003492 L 847.9924191996971 101.9652877832802 L 847.8490375958573 102.05144024150056 L 847.7037573959982 102.13694023952193 L 847.5565931280183 102.22177922741581 L 847.4075595082222 102.30594872135407 L 847.2566714398473 102.38944030445748 L 847.103944011575 102.47224562763729 L 846.9493924960207 102.5543564104302 L 846.7930323482072 102.63576444182635 L 846.634879204019 102.71646158109044 L 846.4749488786387 102.79643975857579 L 846.3132573649655 102.8756909765313 L 846.1498208320162 102.95420730990122 L 845.9846556233076 103.03198090711763 L 845.8177782552233 103.10900399088564 L 845.6492054153608 103.18526885896105 L 845.4789539608637 103.2607678849206 L 845.3070409167356 103.33549351892461 L 845.1334834741375 103.40943828847196 L 844.9582989886692 103.48259479914732 L 844.7815049786332 103.55495573536056 L 844.6031191232831 103.6265138610784 L 844.4231592610558 103.69726202054787 L 844.2416433877878 103.76719313901197 L 844.0585896549148 103.83630022341715 L 843.8740163676579 103.90457636311257 L 843.6879419831916 103.97201473054113 L 843.5003851087997 104.03860858192229 L 843.311364500013 104.10435125792642 L 843.1208990587352 104.1692361843407 L 842.9290078313513 104.23325687272656 L 842.7357100068245 104.29640692106851 L 842.541024914776 104.35868001441433 L 842.3449720235528 104.4200699255066 L 842.1475709382806 104.48057051540535 L 841.9488413989036 104.54017573410202 L 841.7488032782098 104.5988796211244 L 841.5474765798449 104.65667630613272 L 841.3448814363109 104.71356000950664 L 841.141038106953 104.7695250429232 L 840.9359669759348 104.82456580992574 L 840.729688550198 104.87867680648341 L 840.5222234574137 104.93185262154162 L 840.313592443918 104.98408793756322 L 840.1038163726386 105.0353775310601 L 839.8929162210076 105.08571627311568 L 839.6809130788645 105.13509912989768 L 839.4678281463468 105.1835211631616 L 839.2536827317705 105.23097753074444 L 839.0384982494982 105.27746348704899 L 838.8222962177989 105.32297438351839 L 838.6050982566958 105.36750566910086 L 838.3869260858038 105.41105289070501 L 838.1678015221582 105.45361169364494 L 837.9477464780329 105.49517782207583 L 837.7267829587488 105.53574711941947 L 837.5049330604738 105.57531552877992 L 837.2822189680128 105.61387909334925 L 837.0586629525893 105.65143395680312 L 836.8342873696189 105.68797636368647 L 836.6091146564726 105.72350265978909 L 836.3831673302342 105.75800929251095 L 836.156467985448 105.79149281121755 L 835.9290392918596 105.82394986758491 L 835.7009039921487 105.85537721593445 L 835.4720848996554 105.88577171355752 L 835.2426048960981 105.9151303210297 L 835.0124869292861 105.94345010251467 L 834.781754010824 105.97072822605791 L 834.5504292138116 105.99696196386981 L 834.3185356705358 106.02214869259844 L 834.0860965701577 106.04628589359189 L 833.8531351563936 106.0693711531502 L 833.6196747251906 106.09140216276666 L 833.3857386223976 106.11237671935864 L 833.1513502414297 106.13229272548797 L 832.9165330209297 106.15114818957065 L 832.6813104424241 106.16894122607596 L 832.4457060279744 106.1856700557151 L 832.2097433378261 106.20133300561903 L 831.9734459680515 106.21592850950582 L 831.7368375481905 106.22945510783724 L 831.4999417388879 106.24191144796474 L 831.2627822295274 106.25329628426466 L 831.0253827358622 106.2636084782629 L 830.7877669976438 106.2728469987486 L 830.5499587762481 106.28101092187747 L 830.311981852299 106.28809943126396 L 830.0738600232906 106.29411181806304 L 829.8356171012075 106.29904748104106 L 829.5972769101431 106.30290592663582 L 829.3588632839181 106.30568676900597 L 829.1204000636964 106.30738973006962 L 828.8819110956013 106.30801463953205 L 828.6434202283307 106.30756143490284 L 828.4049513107728 106.3060301615021 L 828.1665281896206 106.30342097245587 L 827.9281747069876 106.29973412868088 L 827.6899146980232 106.29496999885845 L 827.45177198853 106.28912905939758 L 827.2137703925804 106.28221189438736 L 826.9759337101356 106.27421919553852 L 826.7382857246656 106.26515176211427 L 826.5008502007711 106.25501050085043 L 826.2636508818064 106.24379642586464 L 826.026711487506 106.23151065855508 L 825.7900557116117 106.21815442748823 L 825.5537072195038 106.20372906827606 L 825.3176896458348 106.1882360234425 L 825.0820265921652 106.17167684227908 L 824.8467416246041 106.15405318069014 L 824.6118582714521 106.13536680102716 L 824.3774000208488 106.11561957191253 L 824.1433903184239 106.09481346805269 L 823.9098525649525 106.0729505700407 L 823.6768101140157 106.05003306414814 L 823.444286269664 106.0260632421065 L 823.2123042840881 106.00104350087803 L 822.9808873552935 105.97497634241597 L 822.75005862478 105.94786437341445 L 822.5198411752284 105.9197103050478 L 822.2902580281918 105.89051695269937 L 822.0613321417935 105.86028723568009 L 821.8330864084315 105.82902417693644 L 821.6055436524889 105.79673090274827 L 821.3787266280516 105.76341064241608 L 821.1526580166332 105.72906672793813 L 820.9273604249062 105.69370259367726 L 820.7028563824421 105.6573217760174 L 820.4791683394582 105.61992791301003 L 820.2563186645723 105.58152474401028 L 820.0343296425661 105.54211610930304 L 819.8132234721571 105.50170594971894 L 819.5930222637777 105.46029830624026 L 819.3737480373655 105.41789731959686 L 819.1554227201603 105.37450722985206 L 818.9380681445119 105.33013237597868 L 818.7217060456969 105.28477719542511 L 818.5063580597446 105.23844622367163 L 818.2920457212743 105.1911440937768 L 818.0787904613412 105.14287553591419 L 817.8666136052938 105.09364537689936 L 817.6555363706404 105.0434585397072 L 817.4455798649291 104.99232004297959 L 817.2367650836352 104.9402350005236 L 817.0291129080629 104.88720862080007 L 816.8226441032567 104.83324620640276 L 816.6173793159251 104.77835315352817 L 816.4133390723756 104.72253495143585 L 816.2105437764626 104.66579718189945 L 816.0090137075468 104.60814551864868 L 815.8087690184672 104.54958572680184 L 815.6098297335255 104.49012366228926 L 815.4122157464848 104.42976527126788 L 815.2159468185789 104.36851658952648 L 815.0210425765371 104.30638374188221 L 814.8275225106212 104.24337294156805 L 814.6354059726764 104.17949048961154 L 814.4447121741966 104.11474277420461 L 814.2554601844026 104.04913627006486 L 814.0676689283357 103.98267753778805 L 813.881357184965 103.91537322319199 L 813.6965435853097 103.84723005665208 L 813.5132466105756 103.77825485242818 L 813.3314845903074 103.70845450798322 L 813.1512757005559 103.63783600329349 L 812.9726379620596 103.56640640015061 L 812.7955892384437 103.49417284145538 L 812.6201472344328 103.42114255050346 L 812.4463294940814 103.3473228302631 L 812.2741533990185 103.27272106264479 L 812.1036361667101 103.19734470776314 L 811.9347948487375 103.1212013031908 L 811.7676463290916 103.04429846320481 L 811.6022073224852 102.96664387802507 L 811.438494372681 102.88824531304537 L 811.2765238508377 102.8091106080569 L 811.1163119538725 102.72924767646418 L 810.9578747028413 102.64866450449387 L 810.8012279413375 102.56736915039596 L 810.6463873339067 102.48536974363815 L 810.4933683644804 102.40267448409276 L 810.342186334828 102.31929164121684 L 810.1928563630267 102.2352295532252 L 810.0453933819492 102.15049662625658 L 809.8998121377707 102.06510133353308 L 809.7561271884942 101.97905221451278 L 809.614352902495 101.89235787403591 L 809.4745034570836 101.80502698146424 L 809.3365928370879 101.71706826981428 L 809.2006348334548 101.62849053488388 L 809.0666430418718 101.53930263437272 L 808.934630861406 101.44951348699652 L 808.8046114931657 101.35913207159521 L 808.6765979389792 101.26816742623502 L 808.5506030000953 101.17662864730465 L 808.426639275903 101.08452488860574 L 808.3047191626713 100.9918653604374 L 808.1848548523099 100.89865932867522 L 808.06705833115 100.80491611384473 L 807.9513413787455 100.71064509018925 L 807.8377155666952 100.61585568473262 L 807.7261922574859 100.5205573763364 L 807.6167826033552 100.424759694752 L 807.5094975451775 100.32847221966773 L 807.4043478113692 100.2317045797509 L 807.3013439168162 100.13446645168483 L 807.2004961618219 100.03676755920131 L 807.1018146310778 99.93861767210817 L 807.0053091926549 99.84002660531232 L 806.9109894970164 99.7410042178383 L 806.8188649760534 99.64156041184232 L 806.7289448421412 99.54170513162211 L 806.6412380872183 99.4414483626225 L 806.555753481887 99.34080013043682 L 806.4724995745368 99.23977049980442 L 806.3914846904887 99.13836957360418 L 806.3127169311639 99.03660749184422 L 806.2362041732727 98.9344944306479 L 806.1619540680268 98.83204060123627 L 806.0899740403753 98.72925624890688 L 806.0202712882606 98.6261516520093 L 805.9528527819001 98.52273712091731 L 805.8877252630881 98.41902299699785 L 805.8248952445222 98.31501965157686 L 805.764369009152 98.21073748490224 L 805.7061526095505 98.10618692510373 L 805.6502518673093 98.0013784271502 L 805.5966723724558 97.89632247180411 L 805.545419482895 97.79102956457344 L 805.4964983238732 97.68551023466115 L 805.4499137874653 97.57977503391233 L 805.4056705320864 97.47383453575894 L 805.363772982025 97.3676993341625 L 805.3242253270013 97.2613800425547 L 805.2870315217476 97.15488729277617 L 805.2521952856138 97.04823173401307 L 805.2197201021941 96.94142403173245 L 805.1896092189801 96.8344748666155 L 805.1618656470348 96.72739493348962 L 805.1364921606925 96.6201949402589 L 805.1134912972805 96.51288560683331 L 805.092865356866 96.40547766405678 L 805.0746164020259 96.29798185263407 L 805.0587462576405 96.19040892205675 L 805.0452565107109 96.08276962952824 L 805.0341485102007 95.9750747388881 L 805.0254233669007 95.86733501953563 L 805.0190819533177 95.75956124535298 L 805.0151249035881 95.65176419362778 L 805.0135526134134 95.54395464397535" stroke-miterlimit="10" stroke-width="2.7769845610000004" stroke-dasharray=""/></g><g><g/><text fill="black" stroke="none" font-family="sans-serif" font-size="11pt" font-style="normal" font-weight="normal" text-decoration="normal" x="791.7906383000911" y="123.83569119881818" text-anchor="start" dominant-baseline="alphabetic" xml:space="preserve">AddressDB</text></g><path fill="none" stroke="none"/><g><path fill="#F2F2F2" stroke="black" paint-order="fill stroke markers" d=" M 1061.1087700956264 68.4593520118182 L 1172.347100587681 68.4593520118182 L 1172.347100587681 128.73625218881818 L 1061.1087700956264 128.73625218881818 L 1061.1087700956264 68.4593520118182 Z" stroke-miterlimit="10" stroke-width="2.613632528" stroke-dasharray=""/></g><g><text fill="black" stroke="none" font-family="sans-serif" font-size="11pt" font-style="normal" font-weight="normal" text-decoration="normal" x="1086.9892192161653" y="96.06584558881816" text-anchor="start" dominant-baseline="alphabetic" xml:space="preserve">API-Cep </text><text fill="black" stroke="none" font-family="sans-serif" font-size="11pt" font-style="normal" font-weight="normal" text-decoration="normal" x="1078.8324656761263" y="112.40104888881817" text-anchor="start" dominant-baseline="alphabetic" xml:space="preserve">external api</text></g></g><g><path fill="white" stroke="black" paint-order="fill stroke markers" d=" M 440.75470933509115 228.3809923188182 L 457.08991263509114 228.3809923188182 L 457.08991263509114 352.5285373988182 L 440.75470933509115 352.5285373988182 L 440.75470933509115 228.3809923188182" stroke-miterlimit="10" stroke-width="1.3612669416666667" stroke-dasharray=""/><path fill="white" stroke="black" paint-order="fill stroke markers" d=" M 1108.5603336916536 398.2671066388182 L 1124.8955369916537 398.2671066388182 L 1124.8955369916537 685.766684718818 L 1108.5603336916536 685.766684718818 L 1108.5603336916536 398.2671066388182" stroke-miterlimit="10" stroke-width="1.3612669416666667" stroke-dasharray=""/><g><text fill="black" stroke="none" font-family="sans-serif" font-size="16pt" font-style="normal" font-weight="normal" text-decoration="normal" x="530.7228622436523" y="24.651306798181814" text-anchor="start" dominant-baseline="alphabetic" xml:space="preserve">Get Address</text></g><g><g><rect fill="white" stroke="none" x="51.946459574986974" y="161.4066587888182" width="373.5620600134375" height="21.23576429"/></g><text fill="black" stroke="none" font-family="sans-serif" font-size="11pt" font-style="normal" font-weight="bold" text-decoration="normal" x="54.396740069986976" y="176.10834175881817" text-anchor="start" dominant-baseline="alphabetic" xml:space="preserve">GET:  /addresses/find-by-zipcode?zipCode=88111555</text></g><g><path fill="none" stroke="black" paint-order="fill stroke markers" d=" M 28.532668178320314 182.64242307881818 L 435.4729936014245 182.64242307881818" stroke-miterlimit="10" stroke-width="1.3612669416666667" stroke-dasharray=""/><g transform="translate(448.92231098509114,182.64242307881818) translate(-448.92231098509114,-182.64242307881818)"><path fill="black" stroke="none" paint-order="stroke fill markers" d=" M 435.30964156842447 175.83608837048484 L 448.92231098509114 182.64242307881818 L 435.30964156842447 189.44875778715152 Z"/></g></g><g><g><rect fill="white" stroke="none" x="592.4481248554036" y="207.1452280288182" width="101.05658210816406" height="21.23576429"/></g><text fill="black" stroke="none" font-family="sans-serif" font-size="11pt" font-style="normal" font-weight="normal" text-decoration="normal" x="594.8984053504037" y="221.84691099881817" text-anchor="start" dominant-baseline="alphabetic" xml:space="preserve">findByZipCode</text></g><g><path fill="none" stroke="#808080" paint-order="fill stroke markers" d=" M 457.08991263509114 228.3809923188182 L 826.8210187713802 228.3809923188182" stroke-miterlimit="10" stroke-width="1.3612669416666667" stroke-dasharray=""/><g transform="translate(828.8629191838802,228.3809923188182) translate(-828.8629191838802,-228.3809923188182)"><path fill="none" stroke="#808080" paint-order="fill stroke markers" d=" M 814.8676748008262 222.13759483319475 L 827.3326193183307 228.3809923188182 L 814.8676748008262 234.62438980444162" stroke-miterlimit="10" stroke-width="1.3612669416666667"/></g></g><path fill="white" stroke="black" paint-order="fill stroke markers" d=" M 457.08991263509114 279.83688271381817 L 465.25751428509113 279.83688271381817 M 465.25751428509113 252.88379726881817 L 781.5126012386849 252.88379726881817 L 796.2142842086848 267.58548023881815 L 796.2142842086848 306.78996815881817 L 465.25751428509113 306.78996815881817 L 465.25751428509113 252.88379726881817 M 781.5126012386849 252.88379726881817 L 781.5126012386849 267.58548023881815 L 796.2142842086848 267.58548023881815" stroke-miterlimit="10" stroke-width="1.3612669416666667" stroke-dasharray=""/><g><text fill="black" stroke="none" font-family="sans-serif" font-size="11pt" font-style="normal" font-weight="normal" text-decoration="normal" x="488.12679890509116" y="275.75308188881814" text-anchor="start" dominant-baseline="alphabetic" xml:space="preserve">If the address does not exist in the Address </text><text fill="black" stroke="none" font-family="sans-serif" font-size="11pt" font-style="normal" font-weight="normal" text-decoration="normal" x="488.12679890509116" y="292.08828518881813" text-anchor="start" dominant-baseline="alphabetic" xml:space="preserve"> api database, integrate with cepApi.</text></g><g><g><rect fill="white" stroke="none" x="640.5261354144857" y="331.29277310881815" width="4.90056099" height="21.23576429"/></g><text fill="black" stroke="none" font-family="sans-serif" font-size="11pt" font-style="normal" font-weight="normal" text-decoration="normal" x="642.9764159094857" y="345.99445607881813" text-anchor="start" dominant-baseline="alphabetic" xml:space="preserve"></text></g><g><path fill="none" stroke="#808080" paint-order="fill stroke markers" d=" M 828.8629191838802 352.5285373988182 L 459.13181304759115 352.5285373988182" stroke-miterlimit="10" stroke-width="1.3612669416666667" stroke-dasharray="6.53408132"/><g transform="translate(457.08991263509114,352.5285373988182) translate(-457.08991263509114,-352.5285373988182)"><path fill="none" stroke="#808080" paint-order="fill stroke markers" d=" M 471.0851570181452 346.2851399131947 L 458.6202125006406 352.5285373988182 L 471.0851570181452 358.77193488444163" stroke-miterlimit="10" stroke-width="1.3612669416666667"/></g></g><g><g><rect fill="white" stroke="none" x="617.0032915992317" y="377.03134234881816" width="323.4760614782812" height="21.23576429"/></g><text fill="black" stroke="none" font-family="sans-serif" font-size="11pt" font-style="normal" font-weight="bold" text-decoration="normal" x="619.4535720942317" y="391.73302531881814" text-anchor="start" dominant-baseline="alphabetic" xml:space="preserve">GET:  /https:</text><text fill="black" stroke="none" font-family="sans-serif" font-size="11pt" font-style="normal" font-weight="bold" text-decoration="normal" x="705.7742508051692" y="391.73302531881814" text-anchor="start" dominant-baseline="alphabetic" xml:space="preserve">//</text><text fill="black" stroke="none" font-family="sans-serif" font-size="11pt" font-style="normal" font-weight="bold" text-decoration="normal" x="713.9202774164974" y="391.73302531881814" text-anchor="start" dominant-baseline="alphabetic" xml:space="preserve">viacep.com.br/ws/88111333/json</text></g><g><path fill="none" stroke="black" paint-order="fill stroke markers" d=" M 448.92231098509114 398.2671066388182 L 1095.1110163079868 398.2671066388182" stroke-miterlimit="10" stroke-width="1.3612669416666667" stroke-dasharray=""/><g transform="translate(1108.5603336916536,398.2671066388182) translate(-1108.5603336916536,-398.2671066388182)"><path fill="black" stroke="none" paint-order="stroke fill markers" d=" M 1094.947664274987 391.46077193048484 L 1108.5603336916536 398.2671066388182 L 1094.947664274987 405.0734413471515 Z"/></g></g><path fill="white" stroke="black" paint-order="fill stroke markers" d=" M 1108.5603336916536 531.3990135338181 L 1100.3927320416535 531.3990135338181 M 837.0305208338802 422.76991158881816 L 1085.6910490716537 422.76991158881816 L 1100.3927320416537 437.47159455881814 L 1100.3927320416537 640.0281154788181 L 837.0305208338802 640.0281154788181 L 837.0305208338802 422.76991158881816 M 1085.6910490716537 422.76991158881816 L 1085.6910490716537 437.47159455881814 L 1100.3927320416537 437.47159455881814" stroke-miterlimit="10" stroke-width="1.3612669416666667" stroke-dasharray=""/><g><text fill="black" stroke="none" font-family="sans-serif" font-size="11pt" font-style="normal" font-weight="normal" text-decoration="normal" x="859.8998054538802" y="445.63919620881813" text-anchor="start" dominant-baseline="alphabetic" xml:space="preserve">{</text><text fill="black" stroke="none" font-family="sans-serif" font-size="11pt" font-style="normal" font-weight="normal" text-decoration="normal" x="859.8998054538802" y="461.9743995088181" text-anchor="start" dominant-baseline="alphabetic" xml:space="preserve">"cep": "88111555",</text><text fill="black" stroke="none" font-family="sans-serif" font-size="11pt" font-style="normal" font-weight="normal" text-decoration="normal" x="859.8998054538802" y="478.3096028088181" text-anchor="start" dominant-baseline="alphabetic" xml:space="preserve">"logradouro": "437 Lytton Ave", </text><text fill="black" stroke="none" font-family="sans-serif" font-size="11pt" font-style="normal" font-weight="normal" text-decoration="normal" x="859.8998054538802" y="494.6448061088181" text-anchor="start" dominant-baseline="alphabetic" xml:space="preserve">"complemento": </text><text fill="black" stroke="none" font-family="monospace" font-size="11pt" font-style="normal" font-weight="normal" text-decoration="normal" x="966.4566902195052" y="494.6448061088181" text-anchor="start" dominant-baseline="alphabetic" xml:space="preserve">, </text><text fill="black" stroke="none" font-family="monospace" font-size="11pt" font-style="normal" font-weight="normal" text-decoration="normal" x="859.8998054538802" y="510.9800094088181" text-anchor="start" dominant-baseline="alphabetic" xml:space="preserve">"bairro": "Center", </text><text fill="black" stroke="none" font-family="monospace" font-size="11pt" font-style="normal" font-weight="normal" text-decoration="normal" x="859.8998054538802" y="527.3152127088181" text-anchor="start" dominant-baseline="alphabetic" xml:space="preserve">"localidade": "Palo Alto", </text><text fill="black" stroke="none" font-family="monospace" font-size="11pt" font-style="normal" font-weight="normal" text-decoration="normal" x="859.8998054538802" y="543.6504160088181" text-anchor="start" dominant-baseline="alphabetic" xml:space="preserve">"uf": "SC", </text><text fill="black" stroke="none" font-family="monospace" font-size="11pt" font-style="normal" font-weight="normal" text-decoration="normal" x="859.8998054538802" y="559.9856193088181" text-anchor="start" dominant-baseline="alphabetic" xml:space="preserve">"ibge": "987456", </text><text fill="black" stroke="none" font-family="monospace" font-size="11pt" font-style="normal" font-weight="normal" text-decoration="normal" x="859.8998054538802" y="576.320822608818" text-anchor="start" dominant-baseline="alphabetic" xml:space="preserve">"gia": </text><text fill="black" stroke="none" font-family="sans-serif" font-size="11pt" font-style="normal" font-weight="normal" text-decoration="normal" x="916.3207496677474" y="576.320822608818" text-anchor="start" dominant-baseline="alphabetic" xml:space="preserve">, </text><text fill="black" stroke="none" font-family="sans-serif" font-size="11pt" font-style="normal" font-weight="normal" text-decoration="normal" x="859.8998054538802" y="592.656025908818" text-anchor="start" dominant-baseline="alphabetic" xml:space="preserve">"ddd": "48", </text><text fill="black" stroke="none" font-family="sans-serif" font-size="11pt" font-style="normal" font-weight="normal" text-decoration="normal" x="859.8998054538802" y="608.991229208818" text-anchor="start" dominant-baseline="alphabetic" xml:space="preserve">"siafi": "3000" </text><text fill="black" stroke="none" font-family="sans-serif" font-size="11pt" font-style="normal" font-weight="normal" text-decoration="normal" x="859.8998054538802" y="625.326432508818" text-anchor="start" dominant-baseline="alphabetic" xml:space="preserve">}</text></g><g><g><rect fill="white" stroke="none" x="737.1750903052864" y="664.530920428818" width="83.13246406617188" height="21.23576429"/></g><text fill="black" stroke="none" font-family="sans-serif" font-size="11pt" font-style="normal" font-weight="normal" text-decoration="normal" x="739.6253708002864" y="679.232603398818" text-anchor="start" dominant-baseline="alphabetic" xml:space="preserve">Response:  </text></g><g><path fill="none" stroke="black" paint-order="fill stroke markers" d=" M 1108.5603336916536 685.766684718818 L 462.3716283687578 685.766684718818" stroke-miterlimit="10" stroke-width="1.3612669416666667" stroke-dasharray="6.53408132"/><g transform="translate(448.92231098509114,685.766684718818) translate(-448.92231098509114,-685.766684718818)"><path fill="black" stroke="none" paint-order="stroke fill markers" d=" M 462.5349804017578 678.9603500104847 L 448.92231098509114 685.766684718818 L 462.5349804017578 692.5730194271514 Z"/></g></g><path fill="#E0FFFF" stroke="black" paint-order="fill stroke markers" d=" M 448.92231098509114 737.222575113818 L 457.08991263509114 737.222575113818 M 457.08991263509114 724.9711726388181 L 457.08991263509114 724.9711726388181 A 14.70168297 14.70168297 0 0 1 471.7915956050911 710.2694896688181 L 797.8260329138802 710.2694896688181 L 797.8260329138802 710.2694896688181 A 14.70168297 14.70168297 0 0 1 812.5277158838802 724.9711726388181 L 812.5277158838802 749.4739775888181 L 812.5277158838802 749.4739775888181 A 14.70168297 14.70168297 0 0 1 797.8260329138802 764.1756605588181 L 471.7915956050911 764.1756605588181 L 471.7915956050911 764.1756605588181 A 14.70168297 14.70168297 0 0 1 457.08991263509114 749.4739775888181 L 457.08991263509114 724.9711726388181" stroke-miterlimit="10" stroke-width="1.3612669416666667" stroke-dasharray=""/><g><text fill="black" stroke="none" font-family="sans-serif" font-size="11pt" font-style="normal" font-weight="normal" text-decoration="normal" x="479.9591972550911" y="733.138774288818" text-anchor="start" dominant-baseline="alphabetic" xml:space="preserve">Insert the address into the database as defined </text><text fill="black" stroke="none" font-family="sans-serif" font-size="11pt" font-style="normal" font-weight="normal" text-decoration="normal" x="479.9591972550911" y="749.473977588818" text-anchor="start" dominant-baseline="alphabetic" xml:space="preserve">in the api contract.</text></g><g><g><rect fill="white" stroke="none" x="514.3557867379232" y="788.678465508818" width="249.073656693125" height="21.23576429"/></g><text fill="black" stroke="none" font-family="sans-serif" font-size="11pt" font-style="normal" font-weight="normal" text-decoration="normal" x="516.8060672329232" y="803.380148478818" text-anchor="start" dominant-baseline="alphabetic" xml:space="preserve">insertAddress | [ Collection: Address ]</text></g><g><path fill="none" stroke="#808080" paint-order="fill stroke markers" d=" M 448.92231098509114 809.914229798818 L 826.8210187713802 809.914229798818" stroke-miterlimit="10" stroke-width="1.3612669416666667" stroke-dasharray=""/><g transform="translate(828.8629191838802,809.914229798818) translate(-828.8629191838802,-809.914229798818)"><path fill="none" stroke="#808080" paint-order="fill stroke markers" d=" M 814.8676748008262 803.6708323131946 L 827.3326193183307 809.914229798818 L 814.8676748008262 816.1576272844414" stroke-miterlimit="10" stroke-width="1.3612669416666667"/></g></g><g><g><rect fill="white" stroke="none" x="183.71458701639324" y="834.417034748818" width="110.025805130625" height="21.23576429"/></g><text fill="black" stroke="none" font-family="sans-serif" font-size="11pt" font-style="normal" font-weight="normal" text-decoration="normal" x="186.16486751139323" y="849.118717718818" text-anchor="start" dominant-baseline="alphabetic" xml:space="preserve">HttpStatus 200  </text></g><g><path fill="none" stroke="black" paint-order="fill stroke markers" d=" M 448.92231098509114 855.652799038818 L 41.98198556198698 855.652799038818" stroke-miterlimit="10" stroke-width="1.3612669416666667" stroke-dasharray="6.53408132"/><g transform="translate(28.532668178320314,855.652799038818) translate(-28.532668178320314,-855.652799038818)"><path fill="black" stroke="none" paint-order="stroke fill markers" d=" M 42.145337594986984 848.8464643304847 L 28.532668178320314 855.652799038818 L 42.145337594986984 862.4591337471513 Z"/></g></g><path fill="white" stroke="black" paint-order="fill stroke markers" d=" M 13.830985208320314 880.155603988818 L 463.6239939550912 880.155603988818 L 463.6239939550912 1048.408197978818 L 13.830985208320314 1048.408197978818 L 13.830985208320314 880.155603988818" stroke-miterlimit="10" stroke-width="1.3612669416666667" stroke-dasharray=""/><g><text fill="black" stroke="none" font-family="sans-serif" font-size="11pt" font-style="normal" font-weight="normal" text-decoration="normal" x="129.4111214786784" y="903.024888608818" text-anchor="start" dominant-baseline="alphabetic" xml:space="preserve">{</text><text fill="black" stroke="none" font-family="sans-serif" font-size="11pt" font-style="normal" font-weight="normal" text-decoration="normal" x="129.4111214786784" y="919.3600919088179" text-anchor="start" dominant-baseline="alphabetic" xml:space="preserve">"id":"65ff184ef05f4914c16f2139", </text><text fill="black" stroke="none" font-family="sans-serif" font-size="11pt" font-style="normal" font-weight="normal" text-decoration="normal" x="129.4111214786784" y="935.6952952088179" text-anchor="start" dominant-baseline="alphabetic" xml:space="preserve">"street":"437 Lytton Ave", </text><text fill="black" stroke="none" font-family="sans-serif" font-size="11pt" font-style="normal" font-weight="normal" text-decoration="normal" x="129.4111214786784" y="952.0304985088179" text-anchor="start" dominant-baseline="alphabetic" xml:space="preserve">"neighborhood":"Center", </text><text fill="black" stroke="none" font-family="sans-serif" font-size="11pt" font-style="normal" font-weight="normal" text-decoration="normal" x="129.4111214786784" y="968.3657018088179" text-anchor="start" dominant-baseline="alphabetic" xml:space="preserve">"number":</text><text fill="black" stroke="none" font-family="monospace" font-size="11pt" font-style="normal" font-weight="normal" text-decoration="normal" x="193.59865199625654" y="968.3657018088179" text-anchor="start" dominant-baseline="alphabetic" xml:space="preserve">, </text><text fill="black" stroke="none" font-family="monospace" font-size="11pt" font-style="normal" font-weight="normal" text-decoration="normal" x="129.4111214786784" y="984.7009051088179" text-anchor="start" dominant-baseline="alphabetic" xml:space="preserve">"city":"Palo Alto", </text><text fill="black" stroke="none" font-family="monospace" font-size="11pt" font-style="normal" font-weight="normal" text-decoration="normal" x="129.4111214786784" y="1001.0361084088179" text-anchor="start" dominant-baseline="alphabetic" xml:space="preserve">"state":"AM", </text><text fill="black" stroke="none" font-family="monospace" font-size="11pt" font-style="normal" font-weight="normal" text-decoration="normal" x="129.4111214786784" y="1017.3713117088179" text-anchor="start" dominant-baseline="alphabetic" xml:space="preserve">"zip":"88111555" </text><text fill="black" stroke="none" font-family="monospace" font-size="11pt" font-style="normal" font-weight="normal" text-decoration="normal" x="129.4111214786784" y="1033.7065150088179" text-anchor="start" dominant-baseline="alphabetic" xml:space="preserve">}</text></g></g><g/></g></svg>